<svg width="1662" height="1192" viewBox="0 0 1662 1192" fill="none" xmlns="http://www.w3.org/2000/svg">
<path d="M693.122 717.5C885.622 587.5 965.122 434.5 987.122 409.5C1052.96 389.167 1187.72 349.1 1200.12 351.5C1215.62 354.5 1184.62 660 1156.12 732C1127.62 804 1013.62 915 957.622 991.5C901.622 1068 843.122 1085.5 769.622 1129.5C696.122 1173.5 541.122 1157.5 383.122 1184C225.122 1210.5 68.6225 1156 16.6225 1139C-35.3775 1122 46.6225 1029 98.1225 991.5C149.623 954 500.622 847.5 693.122 717.5Z" fill="#9FC78C"/>
<ellipse cx="1316.62" cy="509" rx="345" ry="417" fill="#9FBCE0"/>
<ellipse cx="886.122" cy="267.5" rx="422.5" ry="257.5" fill="#E77F5A"/>
<path d="M532.407 827.813C414.509 874.909 355.461 853.421 336.699 853.448C-14.2281 728.434 376.084 396.685 398.279 297.735C420.473 198.785 674.688 158.292 757.916 149.189C841.143 140.087 1104.26 358.982 965.719 500.021C827.179 641.061 650.305 780.717 532.407 827.813Z" fill="#F6C675"/>
</svg>
